<svg id="icon-close" xmlns="http://www.w3.org/2000/svg" width="50" height="50" viewBox="0 0 50 50">
  <path id="Path_45" data-name="Path 45" d="M25,0A25,25,0,1,0,42.324,43.024a1.017,1.017,0,0,0-1.41-1.467,22.891,22.891,0,1,1,5.513-8.276,1.018,1.018,0,0,0,1.9.734A25.015,25.015,0,0,0,25,0Z"/>
  <path id="Path_46" data-name="Path 46" d="M159.2,158.72a1.046,1.046,0,0,0-1.464,1.495l8.235,8.061a1.046,1.046,0,0,0,1.464-1.5Z" transform="translate(-130.914 -131.741)"/>
  <path id="Path_47" data-name="Path 47" d="M86.378,87.857a1.046,1.046,0,0,0,1.479-1.479l-7.886-7.886a1.046,1.046,0,0,0-1.479,1.479Z" transform="translate(-65.016 -65.016)"/>
  <path id="Path_48" data-name="Path 48" d="M102.02,78.491a1.046,1.046,0,0,0-1.479,0L78.491,100.54a1.046,1.046,0,0,0,1.479,1.479L102.02,79.971A1.046,1.046,0,0,0,102.02,78.491Z" transform="translate(-65.255 -65.255)"/>
</svg>
