<svg xmlns="http://www.w3.org/2000/svg" width="30.533" height="20.991" viewBox="0 0 30.533 20.991"><path d="M29.236,82.023c-.828-1.473-1.727-1.744-3.557-1.847C23.85,80.052,19.253,80,15.27,80s-8.589.052-10.416.174c-1.826.1-2.727.374-3.563,1.849C.439,83.494,0,86.028,0,90.49v.015c0,4.443.439,7,1.292,8.452.836,1.473,1.735,1.74,3.561,1.864,1.828.107,6.427.17,10.418.17s8.58-.063,10.41-.168c1.83-.124,2.729-.391,3.557-1.864.861-1.456,1.3-4.009,1.3-8.452v-.015C30.533,86.028,30.1,83.494,29.236,82.023ZM11.45,96.221V84.771L20.992,90.5Z" transform="translate(0 -80)" fill="#fff"/></svg>