<svg xmlns="http://www.w3.org/2000/svg" width="67.534" height="67.534" viewBox="0 0 67.534 67.534">
  <g id="icon-play" transform="translate(-7 -7)">
    <path id="Path_94" data-name="Path 94" d="M53.178,98.428c.5-.705,1.031-1.394,1.585-2.058L56.591,98q-.724.871-1.385,1.795Z" transform="translate(-39.916 -77.25)" fill="#fff"/>
    <path id="Path_95" data-name="Path 95" d="M98.284,53.283c.671-.549,1.365-1.074,2.076-1.57l1.343,2.04q-.932.654-1.818,1.374Z" transform="translate(-78.905 -38.649)" fill="#fff"/>
    <path id="Path_96" data-name="Path 96" d="M40.767,74.534A33.778,33.778,0,0,1,10.054,26.721L12.243,27.8A31.334,31.334,0,1,0,40.767,9.441h-.1a31.213,31.213,0,0,0-12.593,2.673l-1.058-2.2A33.662,33.662,0,0,1,40.677,7h.088A33.767,33.767,0,0,1,64.644,64.644,33.545,33.545,0,0,1,40.767,74.534Z" transform="translate(0)" fill="#fff"/>
    <path id="Path_97" data-name="Path 97" d="M167,144.108l25.289,15.174L167,174.456Zm2.441,26.037,18.107-10.863-18.107-10.863Z" transform="translate(-138.303 -118.515)" fill="#fff"/>
  </g>
</svg>
