<svg id="icon-drive" xmlns="http://www.w3.org/2000/svg" width="46" height="46" viewBox="0 0 46 46">
  <path id="Shape" d="M23,46A23.006,23.006,0,0,1,14.048,1.808a23.006,23.006,0,0,1,17.9,42.385A22.854,22.854,0,0,1,23,46ZM40.25,23a13.151,13.151,0,0,0-10.072,4.958,18.986,18.986,0,0,0-4.28,12,17.36,17.36,0,0,0,10.224-5.807A17.072,17.072,0,0,0,40.25,23ZM5.75,23A17.071,17.071,0,0,0,9.877,34.151,17.361,17.361,0,0,0,20.1,39.958a18.989,18.989,0,0,0-4.28-12A13.152,13.152,0,0,0,5.75,23ZM23,20.125A2.875,2.875,0,1,0,25.875,23,2.879,2.879,0,0,0,23,20.125ZM23,5.75A16.951,16.951,0,0,0,12.991,9,17.375,17.375,0,0,0,6.8,17.25h32.39A17.376,17.376,0,0,0,33.009,9,16.949,16.949,0,0,0,23,5.75Z" fill="#fff"/>
</svg>
