<svg xmlns="http://www.w3.org/2000/svg" width="21.121" height="21.121" viewBox="0 0 21.121 21.121"><path d="M20.678,0H.443A.443.443,0,0,0,0,.443V20.678a.443.443,0,0,0,.443.443H11.194V14.064H8.925a.355.355,0,0,1-.355-.355V10.847a.355.355,0,0,1,.355-.355h2.269V8.518a3.963,3.963,0,0,1,4.174-4.283l2.257,0a.355.355,0,0,1,.354.355V7.25a.355.355,0,0,1-.355.355H16.1c-1.048,0-1.24.409-1.24,1.213v1.674h2.654a.355.355,0,0,1,.355.355v2.861a.355.355,0,0,1-.355.355H14.864v7.057h5.814a.443.443,0,0,0,.443-.443V.443A.443.443,0,0,0,20.678,0Z" fill="#fff"/></svg>