<?xml version="1.0" encoding="UTF-8"?>
<svg width="780px" height="780px" viewBox="0 0 780 780" version="1.1" xmlns="http://www.w3.org/2000/svg" xmlns:xlink="http://www.w3.org/1999/xlink">
    <!-- Generator: Sketch 60 (88103) - https://sketch.com -->
    <title>youtube (2)</title>
    <desc>Created with Sketch.</desc>
    <g id="Page-1" stroke="none" stroke-width="1" fill="none" fill-rule="evenodd">
        <g id="youtube-(2)">
            <circle id="Oval" fill="#FFFFFF" cx="390" cy="390" r="390"></circle>
            <path d="M624.24,247.92 C610.352,223.216 595.28,218.672 564.592,216.944 C533.936,214.864 456.848,214 390.064,214 C323.152,214 246.032,214.864 215.408,216.912 C184.784,218.672 169.68,223.184 155.664,247.92 C141.36,272.592 134,315.088 134,389.904 C134,389.968 134,390 134,390 C134,390.064 134,390.096 134,390.096 L134,390.16 C134,464.656 141.36,507.472 155.664,531.888 C169.68,556.592 184.752,561.072 215.376,563.152 C246.032,564.944 323.152,566 390.064,566 C456.848,566 533.936,564.944 564.624,563.184 C595.312,561.104 610.384,556.624 624.272,531.92 C638.704,507.504 646,464.688 646,390.192 C646,390.192 646,390.096 646,390.032 C646,390.032 646,389.968 646,389.936 C646,315.088 638.704,272.592 624.24,247.92 Z M326,486 L326,294 L486,390 L326,486 Z" id="Shape" fill="#000000" fill-rule="nonzero"></path>
        </g>
    </g>
</svg>