<svg xmlns="http://www.w3.org/2000/svg" width="211.445" height="75.002" viewBox="0 0 211.445 75.002">
  <g id="logo-honda" transform="translate(-82.651 -355.949)">
    <rect id="Rectangle_58" data-name="Rectangle 58" width="211.445" height="75.002" transform="translate(82.651 355.949)" fill="none"/>
    <g id="Group_93" data-name="Group 93" transform="translate(102.166 374.702)">
      <g id="Group_91" data-name="Group 91">
        <path id="Path_109" data-name="Path 109" d="M240.663,395.362v-2.619l2.64-.3a1.936,1.936,0,0,0,1.419-1.141l6.6-10.735a1.021,1.021,0,0,0-.679-1.669l-3.475-.4v-2.657h15.035a2.161,2.161,0,0,1,1.729,1.081l8.779,13.419c.692,1.08,1.222,1.919,2.1,2.035l2.764.307v2.681h-16.9v-2.644l2.147-.264c1.029-.117,1.871-.585,1.029-1.839l-.812-1.228H251.053l-.919,1.492c-.574.913,0,1.458.879,1.575l2.149.264v2.644h-12.5m12.54-9.426h7.584l-3.828-6.02-3.756,6.02" transform="translate(-105.159 -375.079)" fill="#fff"/>
        <path id="Path_110" data-name="Path 110" d="M228.872,375.839H209.54V378.5l2.431.244a1.473,1.473,0,0,1,1.264,1.674v10.508a1.372,1.372,0,0,1-1.106,1.532l-2.6.334v2.564l19.341.011c8.9,0,12.729-4.326,12.729-10.042,0-5.135-3.826-9.481-12.729-9.481m-2.983,15.775h-4.982V379.573h4.982c4.752,0,6.753,1.1,6.753,6.012,0,4.947-2,6.03-6.753,6.03" transform="translate(-104.57 -375.079)" fill="#fff"/>
        <path id="Path_111" data-name="Path 111" d="M102.543,395.362h15.642v-2.6l-2.678-.3c-.611-.08-1.225-.464-1.225-1.767v-3.143H126.32v2.987c0,.888-.149,1.727-1.192,1.842l-2.722.307v2.681h15.642v-2.681l-2.76-.307c-.535-.077-1.151-.5-1.151-1.608V380.607c0-1.034.377-1.734,1.187-1.8l2.723-.307v-2.657H122.406v2.621l2.722.342c.921.117,1.192.844,1.192,1.8v3.031H114.281v-3.073c0-1.153.459-1.693,1.263-1.763l2.641-.307v-2.657H102.578V378.5l2.613.307c1.037.117,1.3.883,1.266,1.875v9.9c0,1.1-.305,1.763-1.3,1.88l-2.611.3v2.6" transform="translate(-102.543 -375.079)" fill="#fff"/>
        <path id="Path_112" data-name="Path 112" d="M139.517,385.49c0-6.128,4.946-10.426,15.984-10.426,10.97,0,15.921,4.3,15.921,10.426,0,6.289-4.95,10.545-15.921,10.545-11.039,0-15.984-4.257-15.984-10.545m15.946-6.664c-4.443,0-6.971,1.652-6.971,6.708,0,5.139,2.528,6.789,6.971,6.789s6.981-1.65,6.981-6.789c0-5.056-2.534-6.708-6.981-6.708" transform="translate(-103.243 -375.064)" fill="#fff"/>
        <path id="Path_113" data-name="Path 113" d="M172.919,395.362h12.5v-2.6l-2.686-.3a1.451,1.451,0,0,1-1.227-1.612V380.91L191.9,394.6a2.118,2.118,0,0,0,1.614.763h9.807v-14.8c0-.7.181-1.644,1.187-1.763l2.724-.307v-2.657h-12.5v2.621l2.728.342c.957.117,1.186.92,1.186,1.836v9.667l-10.318-13.611a1.944,1.944,0,0,0-1.607-.855h-13.8V378.5l2.608.307c.918.137,1.264.6,1.264,1.875v9.9c0,1.17-.32,1.731-1.3,1.88l-2.567.3v2.6" transform="translate(-103.876 -375.079)" fill="#fff"/>
      </g>
      <g id="Group_92" data-name="Group 92" transform="translate(6.33 27.384)">
        <path id="Path_114" data-name="Path 114" d="M109,404.2h3.963v8.12h1.434V404.2h3.914v-1.08H109Z" transform="translate(-108.995 -402.98)" fill="#fff"/>
        <path id="Path_115" data-name="Path 115" d="M124.284,405.119a3.385,3.385,0,0,0-2.919,1.419v-3.416h-1.387v9.2h1.387v-3.275a2.643,2.643,0,0,1,2.715-2.978c1.387,0,2.122.806,2.122,2.33v3.923h1.381v-3.988C127.583,406.263,126.412,405.119,124.284,405.119Z" transform="translate(-109.203 -402.98)" fill="#fff"/>
        <path id="Path_116" data-name="Path 116" d="M158.653,405.874a4.693,4.693,0,0,0-3.233-1,4.606,4.606,0,0,0-3.191,1.053,4.088,4.088,0,0,0,0,5.592,4.637,4.637,0,0,0,3.191,1c2.785,0,4.319-1.359,4.319-3.823A3.625,3.625,0,0,0,158.653,405.874Zm-.374,2.817a2.654,2.654,0,0,1-2.859,2.823,2.813,2.813,0,0,1-2.114-.812,2.862,2.862,0,0,1-.719-2.011,2.846,2.846,0,0,1,5.692,0Z" transform="translate(-109.793 -403.013)" fill="#fff"/>
        <path id="Path_117" data-name="Path 117" d="M200.685,405.874a4.683,4.683,0,0,0-3.232-1,4.635,4.635,0,0,0-3.2,1.053,3.62,3.62,0,0,0-1.115,2.768c0,2.464,1.531,3.823,4.316,3.823a4.67,4.67,0,0,0,3.2-1,4.175,4.175,0,0,0,.029-5.641Zm-5.355.78a2.864,2.864,0,0,1,2.123-.786,2.591,2.591,0,0,1,2.869,2.823,2.676,2.676,0,0,1-2.869,2.823,2.662,2.662,0,0,1-2.857-2.823A2.843,2.843,0,0,1,195.331,406.654Z" transform="translate(-110.589 -403.013)" fill="#fff"/>
        <path id="Path_118" data-name="Path 118" d="M229.206,404.962a3.154,3.154,0,0,0-2.592,1.837v-1.774h-1.241v7.341h1.408V408.5a2.357,2.357,0,0,1,.8-1.727,2.746,2.746,0,0,1,1.877-.658l.682-.013v-1.143h-.018A8.094,8.094,0,0,0,229.206,404.962Z" transform="translate(-111.2 -403.014)" fill="#fff"/>
        <path id="Path_119" data-name="Path 119" d="M146.134,403.115l-4.185.013v9.2h1.429v-3.536h2.95a4.382,4.382,0,0,0,2.861-.828,2.658,2.658,0,0,0,.922-2.11,2.4,2.4,0,0,0-.668-1.765A4.6,4.6,0,0,0,146.134,403.115Zm2.452,2.747c0,1.3-.736,1.883-2.381,1.883h-2.826v-3.58h2.729C147.8,404.165,148.586,404.705,148.586,405.862Z" transform="translate(-109.619 -402.98)" fill="#fff"/>
        <path id="Path_120" data-name="Path 120" d="M221.881,404.317a6.051,6.051,0,0,0-4.1-1.2h-4.1v9.213h4.157a5.962,5.962,0,0,0,3.954-1.19,5,5,0,0,0,.094-6.827Zm-6.752-.139h2.317a4.871,4.871,0,0,1,3.4.9,3.414,3.414,0,0,1,.839,2.654c0,2.393-1.318,3.553-4.03,3.553h-2.526Z" transform="translate(-110.978 -402.98)" fill="#fff"/>
        <path id="Path_121" data-name="Path 121" d="M247.745,410.8v-3.044a2.247,2.247,0,0,0-.763-2.026,4.484,4.484,0,0,0-2.8-.849c-1.107,0-3.007.319-3.363,1.839h1.514a1.975,1.975,0,0,1,1.849-.855c1.31,0,2.212.582,2.212,1.707v.246h-.746l-.425,0c-1.282,0-3.219.051-4.149,1a1.865,1.865,0,0,0-.527,1.356c0,1.37,1.179,2.334,2.932,2.334a3.161,3.161,0,0,0,2.965-1.234,10.7,10.7,0,0,0,.072,1.09h1.329A14.526,14.526,0,0,1,247.745,410.8Zm-1.351-1.7c0,1.618-.838,2.433-2.566,2.433-1.172,0-1.816-.5-1.816-1.36a1.025,1.025,0,0,1,.3-.751,4.187,4.187,0,0,1,2.721-.638c.144,0,.283,0,.41,0l.272,0h.682Z" transform="translate(-111.487 -403.013)" fill="#fff"/>
        <path id="Path_122" data-name="Path 122" d="M258.961,404.884a2.827,2.827,0,0,0-2.668,1.766,2.649,2.649,0,0,0-2.467-1.766,2.773,2.773,0,0,0-2.562,1.536s-.007-.676-.06-1.4h-1.3c.041.547.046,1.216.046,1.792v5.55h1.381v-3.53c0-2.012,1.106-2.926,2.2-2.926,1.142,0,1.676.864,1.676,2.719v3.736h1.378v-3.53a3.1,3.1,0,0,1,.838-2.38,2.019,2.019,0,0,1,1.322-.545,1.42,1.42,0,0,1,1.372.695,4.294,4.294,0,0,1,.365,2.092v3.669h1.382v-4.212a3.4,3.4,0,0,0-.827-2.49A2.833,2.833,0,0,0,258.961,404.884Z" transform="translate(-111.664 -403.013)" fill="#fff"/>
        <path id="Path_123" data-name="Path 123" d="M269.267,408.368l-2.3-.475c-1.09-.219-1.572-.512-1.572-1.007,0-.67.862-1.018,2.119-1.018,1.031,0,1.77.276,2,.849h1.5a1.848,1.848,0,0,0-1.1-1.418,5.861,5.861,0,0,0-2.368-.428,4.885,4.885,0,0,0-2.4.522,1.986,1.986,0,0,0-1.144,1.711c0,.972.713,1.555,2,1.836l2.179.465c.75.158,1.524.372,1.524,1.007,0,.762-.8,1.131-2.248,1.131-1.2,0-1.923-.344-2.164-1.062H263.8c.289,1.677,2.044,2.035,3.512,2.035,2.61,0,3.879-.75,3.879-2.293C271.186,409.188,270.631,408.651,269.267,408.368Z" transform="translate(-111.927 -403.013)" fill="#fff"/>
        <path id="Path_124" data-name="Path 124" d="M206.91,402.977a2.9,2.9,0,0,0-1.961.532,1.983,1.983,0,0,0-.606.92,4.922,4.922,0,0,0-.176,1.5h-1.5v1h1.5l0,5.407h1.408v-5.407h2.537v-1h-2.537c0-1.022.047-1.35.347-1.636a1.559,1.559,0,0,1,1.172-.323,4.274,4.274,0,0,1,1.1.124v-1.011A7.73,7.73,0,0,0,206.91,402.977Z" transform="translate(-110.769 -402.977)" fill="#fff"/>
        <path id="Path_125" data-name="Path 125" d="M171.052,408.287c-.274.888-.572,1.878-.935,3.119h-.007c-.3-.99-.611-2.017-.935-3.051l-.971-2.978,0-.012h-2.135l-.977,2.99c-.329,1-.643,2.024-.935,3.051h-.007c-.364-1.243-.66-2.234-.934-3.119l-.9-2.91,0-.013h-1.528l2.268,7,0,.012h2.137l1.01-3.032c.081-.258.162-.516.243-.772.23-.729.467-1.482.691-2.235h.008c.234.786.482,1.573.723,2.334q.1.336.212.674l1,3.02,0,.012h2.137l2.266-6.985.007-.024H171.96Z" transform="translate(-109.976 -403.022)" fill="#fff"/>
        <path id="Path_126" data-name="Path 126" d="M188.2,404.962a3.156,3.156,0,0,0-2.592,1.837v-1.774h-1.24v7.341h1.407V408.5a2.365,2.365,0,0,1,.8-1.727,2.75,2.75,0,0,1,1.878-.658l.682-.013v-1.143h-.019A8.1,8.1,0,0,0,188.2,404.962Z" transform="translate(-110.423 -403.014)" fill="#fff"/>
        <path id="Path_127" data-name="Path 127" d="M181.338,405.888a3.822,3.822,0,0,0-2.79-1.017,3.62,3.62,0,0,0-3.967,3.958,3.524,3.524,0,0,0,1.031,2.653,4.224,4.224,0,0,0,2.926,1.032,4.839,4.839,0,0,0,2.369-.586,2.584,2.584,0,0,0,1.274-1.447h-1.531a2.375,2.375,0,0,1-2.193,1.051,2.313,2.313,0,0,1-2.2-1.289,3.228,3.228,0,0,1-.319-1.164h6.369v-.426A3.744,3.744,0,0,0,181.338,405.888Zm-5.366,2.207a2.4,2.4,0,0,1,.079-.408,2.323,2.323,0,0,1,2.465-1.832,2.175,2.175,0,0,1,2.343,2.24Z" transform="translate(-110.238 -403.013)" fill="#fff"/>
        <path id="Path_128" data-name="Path 128" d="M237.723,405.888a3.818,3.818,0,0,0-2.789-1.017,3.62,3.62,0,0,0-3.967,3.958A3.524,3.524,0,0,0,232,411.481a4.222,4.222,0,0,0,2.926,1.032,4.839,4.839,0,0,0,2.369-.586,2.584,2.584,0,0,0,1.274-1.447h-1.531a2.375,2.375,0,0,1-2.193,1.051,2.311,2.311,0,0,1-2.2-1.289,3.209,3.209,0,0,1-.32-1.164h6.369a6.148,6.148,0,0,0-.028-.919A3.564,3.564,0,0,0,237.723,405.888Zm-5.364,2.207a2.218,2.218,0,0,1,.078-.408,2.322,2.322,0,0,1,2.465-1.832,2.175,2.175,0,0,1,2.343,2.24Z" transform="translate(-111.306 -403.013)" fill="#fff"/>
        <path id="Path_129" data-name="Path 129" d="M136.194,405.888a3.819,3.819,0,0,0-2.79-1.017,3.62,3.62,0,0,0-3.966,3.958,3.524,3.524,0,0,0,1.031,2.653,4.22,4.22,0,0,0,2.926,1.032,4.842,4.842,0,0,0,2.369-.586,2.584,2.584,0,0,0,1.274-1.447H135.5a2.373,2.373,0,0,1-2.192,1.051,2.31,2.31,0,0,1-2.2-1.289,3.209,3.209,0,0,1-.32-1.164h6.369v-.426A3.745,3.745,0,0,0,136.194,405.888Zm-5.365,2.207a2.4,2.4,0,0,1,.078-.408,2.324,2.324,0,0,1,2.466-1.832,2.175,2.175,0,0,1,2.343,2.24Z" transform="translate(-109.382 -403.013)" fill="#fff"/>
      </g>
    </g>
  </g>
</svg>
