<svg xmlns="http://www.w3.org/2000/svg" width="50" height="50" viewBox="0 0 50 50"><path data-name="Path 45" d="M25 0a25 25 0 1 0 17.324 43.024 1.017 1.017 0 0 0-1.41-1.467 22.891 22.891 0 1 1 5.513-8.276 1.018 1.018 0 0 0 1.9.734A25.015 25.015 0 0 0 25 0z"/><path data-name="Path 46" d="M28.286 26.979a1.046 1.046 0 0 0-1.464 1.495l8.235 8.061a1.048 1.048 0 0 0 1.464-1.5z"/><path data-name="Path 47" d="M21.362 22.841a1.046 1.046 0 0 0 1.479-1.479l-7.886-7.886a1.046 1.046 0 0 0-1.479 1.479z"/><path data-name="Path 48" d="M36.765 13.236a1.046 1.046 0 0 0-1.479 0l-22.05 22.049a1.046 1.046 0 0 0 1.479 1.479l22.05-22.048a1.046 1.046 0 0 0 0-1.48z"/></svg>