<svg xmlns="http://www.w3.org/2000/svg" width="24.99" height="45.915" viewBox="0 0 24.99 45.915"><g fill="#fff"><path d="M19.375 45.915H5.616A5.646 5.646 0 0 1 0 40.253V19.99a4.775 4.775 0 0 1 1.6-3.566l4.067-3.593a10.544 10.544 0 0 1-.7-3.81A10 10 0 0 1 7.1 2.728 6.917 6.917 0 0 1 12.491 0c4.146 0 7.519 4.047 7.519 9.022a1.12 1.12 0 1 1-2.239 0c0-3.729-2.368-6.763-5.279-6.763a4.716 4.716 0 0 0-3.657 1.9 7.714 7.714 0 0 0-1.624 4.863 8.476 8.476 0 0 0 .289 2.191l3.246-2.869a2.64 2.64 0 0 1 3.489 0l9.151 8.08a4.777 4.777 0 0 1 1.6 3.566v20.263a5.645 5.645 0 0 1-5.611 5.662zM6.754 14.863l-3.685 3.255a2.5 2.5 0 0 0-.84 1.872v20.263a3.4 3.4 0 0 0 3.377 3.406h13.769a3.4 3.4 0 0 0 3.377-3.406h-.01V19.99a2.5 2.5 0 0 0-.839-1.872l-9.151-8.081a.405.405 0 0 0-.541 0l-3.769 3.331c.122.178.254.35.383.517a4.72 4.72 0 0 0 3.657 1.9 1.129 1.129 0 0 1 0 2.257 6.918 6.918 0 0 1-5.392-2.728z"/><path d="M13.722 28.551h-2.463a1.59 1.59 0 0 1 0-3.18h4.338a1.129 1.129 0 0 0 0-2.258H13.61v-1.467a1.12 1.12 0 1 0-2.239 0v1.471h-.112a3.848 3.848 0 0 0 0 7.695h2.463a1.59 1.59 0 0 1 0 3.18H9.3a1.129 1.129 0 0 0 0 2.258h2.071v1.5a1.12 1.12 0 1 0 2.239 0v-1.5h.159a3.848 3.848 0 0 0-.047-7.695z"/></g></svg>