<svg xmlns="http://www.w3.org/2000/svg" width="67.534" height="67.534" viewBox="0 0 67.534 67.534"><g fill="#fff"><path data-name="Path 94" d="M6.262 14.178c.5-.705 1.031-1.394 1.585-2.058l1.828 1.63q-.724.871-1.385 1.795z"/><path data-name="Path 95" d="M12.379 7.634a34.022 34.022 0 0 1 2.076-1.57l1.343 2.04q-.932.654-1.818 1.374z"/><path data-name="Path 96" d="M33.767 67.534A33.778 33.778 0 0 1 3.054 19.721L5.243 20.8A31.334 31.334 0 1 0 33.767 2.441h-.1a31.213 31.213 0 0 0-12.593 2.673l-1.058-2.2A33.662 33.662 0 0 1 33.677 0h.088a33.767 33.767 0 0 1 23.879 57.644 33.545 33.545 0 0 1-23.877 9.89z"/><path data-name="Path 97" d="M21.697 18.593l25.289 15.174-25.289 15.174zm2.441 26.037l18.107-10.863-18.107-10.863z"/></g></svg>