<svg xmlns="http://www.w3.org/2000/svg" width="34.618" height="45.781" viewBox="0 0 34.618 45.781"><g fill="#fff"><path d="M32.582 45.781H2.036A2.061 2.061 0 0 1 0 43.7V2.082A2.061 2.061 0 0 1 2.036 0h30.546a2.061 2.061 0 0 1 2.036 2.082V43.7a2.061 2.061 0 0 1-2.036 2.081zM4.073 14.566v27.051h26.472V14.566zm0-10.4V10.4h26.472V4.161z"/><path d="M11.353 16.407H7.126a1.03 1.03 0 0 0-1.018 1.04v4.323a1.03 1.03 0 0 0 1.018 1.037h4.227a1.03 1.03 0 0 0 1.018-1.04v-4.32a1.027 1.027 0 0 0-1.018-1.04z"/><path data-name="Path" d="M19.421 16.407h-4.226a1.03 1.03 0 0 0-1.018 1.04v4.323a1.029 1.029 0 0 0 1.018 1.037h4.226a1.03 1.03 0 0 0 1.018-1.04v-4.32a1.028 1.028 0 0 0-1.018-1.04zM27.49 16.407h-4.227a1.029 1.029 0 0 0-1.017 1.04v4.323a1.029 1.029 0 0 0 1.017 1.037h4.227a1.03 1.03 0 0 0 1.018-1.04v-4.32a1.029 1.029 0 0 0-1.018-1.04zM11.353 24.892H7.126a1.029 1.029 0 0 0-1.018 1.039v4.323a1.029 1.029 0 0 0 1.018 1.038h4.227a1.029 1.029 0 0 0 1.018-1.038v-4.323a1.026 1.026 0 0 0-1.018-1.039zM19.421 24.892h-4.226a1.029 1.029 0 0 0-1.018 1.039v4.323a1.028 1.028 0 0 0 1.018 1.038h4.226a1.029 1.029 0 0 0 1.018-1.038v-4.323a1.027 1.027 0 0 0-1.018-1.039zM11.353 33.377H7.126a1.029 1.029 0 0 0-1.018 1.038v4.323a1.028 1.028 0 0 0 1.018 1.039h4.227a1.03 1.03 0 0 0 1.018-1.04v-4.322a1.026 1.026 0 0 0-1.018-1.038zM19.421 33.377h-4.226a1.029 1.029 0 0 0-1.018 1.038v4.323a1.028 1.028 0 0 0 1.018 1.039h4.226a1.03 1.03 0 0 0 1.018-1.04v-4.322a1.027 1.027 0 0 0-1.018-1.038zM27.49 24.892h-4.227a1.028 1.028 0 0 0-1.017 1.039v12.807a1.028 1.028 0 0 0 1.017 1.04h4.227a1.03 1.03 0 0 0 1.018-1.04V25.931a1.028 1.028 0 0 0-1.018-1.039z"/></g></svg>