<svg xmlns="http://www.w3.org/2000/svg" width="45.4" height="39.357" viewBox="0 0 45.4 39.357"><path d="M45.4 39.357H0V9.924h1.55V7.192h7.837V0h6.048v7.192h7.193l18.358-3.449v3.449h2.866v2.733H45.4v29.431zM40.986 8.726v26.06l-10.063 1.891h11.415V8.726zm-37.922 0v27.951h18.879V8.724h-6.506v12.9h5.012l-8.034 8.134-8.04-8.134h5.013v-12.9zm36.408-3.141l-8.549 1.607-4.074.766-3.392.642v27.922l16.016-3.01V5.585zM25.489 33.724l-.4-1.477 11.972-3.293.4 1.478-11.971 3.292zm.138-4.131l-.4-1.477L37.2 24.821l.4 1.481-11.97 3.29zm.141-4.01l-.408-1.474 11.7-3.292.407 1.474-11.698 3.291zm0-3.909l-.409-1.474 11.7-3.294.407 1.475-11.697 3.293zm.023-3.907l-.407-1.474L37.057 13l.408 1.475-11.673 3.292zm0-3.91l-.407-1.474 8.7-2.457 2.971-.838.23.838.175.637-11.668 3.293z" fill="#fff"/></svg>