<svg xmlns="http://www.w3.org/2000/svg" width="30.533" height="20.991" viewBox="0 0 30.533 20.991"><path d="M29.236 2.023C28.408.55 27.509.279 25.679.176 23.85.052 19.253 0 15.27 0S6.681.052 4.854.174c-1.826.1-2.727.374-3.563 1.849C.439 3.494 0 6.028 0 10.49v.015c0 4.443.439 7 1.292 8.452.836 1.473 1.735 1.74 3.561 1.864 1.828.107 6.427.17 10.418.17s8.58-.063 10.41-.168c1.83-.124 2.729-.391 3.557-1.864.861-1.456 1.3-4.009 1.3-8.452v-.015c-.005-4.464-.438-6.998-1.302-8.469zM11.45 16.221V4.771l9.542 5.729z" fill="#fff"/></svg>