<svg width="780" height="780" viewBox="0 0 780 780" xmlns="http://www.w3.org/2000/svg"><title>youtube (2)</title><g fill="none" fill-rule="evenodd"><circle fill="#FFF" cx="390" cy="390" r="390"/><path d="M624.24 247.92c-13.888-24.704-28.96-29.248-59.648-30.976-30.656-2.08-107.744-2.944-174.528-2.944-66.912 0-144.032.864-174.656 2.912-30.624 1.76-45.728 6.272-59.744 31.008C141.36 272.592 134 315.088 134 389.904v.256c0 74.496 7.36 117.312 21.664 141.728 14.016 24.704 29.088 29.184 59.712 31.264C246.032 564.944 323.152 566 390.064 566c66.784 0 143.872-1.056 174.56-2.816 30.688-2.08 45.76-6.56 59.648-31.264C638.704 507.504 646 464.688 646 390.192v-.16-.096c0-74.848-7.296-117.344-21.76-142.016zM326 486V294l160 96-160 96z" fill="#000" fill-rule="nonzero"/></g></svg>